<svg xmlns="http://www.w3.org/2000/svg" width="38.326" height="38.326" viewBox="0 0 38.326 38.326">
  <path id="ic_library_books_24px" d="M5.833,9.665H2V36.494a3.844,3.844,0,0,0,3.833,3.833H32.661V36.494H5.833ZM36.494,2h-23A3.844,3.844,0,0,0,9.665,5.833v23A3.844,3.844,0,0,0,13.5,32.661h23a3.844,3.844,0,0,0,3.833-3.833v-23A3.844,3.844,0,0,0,36.494,2ZM34.578,19.247H15.414V15.414H34.578Zm-7.665,7.665h-11.5V23.08h11.5Zm7.665-15.331H15.414V7.749H34.578Z" transform="translate(-2 -2)" fill="#811fcc"/>
</svg>
