<svg xmlns="http://www.w3.org/2000/svg" width="38" height="30.4" viewBox="0 0 38 30.4">
  <path id="ic_local_atm_24px" d="M19.1,28.7h3.8V26.8h1.9a1.906,1.906,0,0,0,1.9-1.9V19.2a1.906,1.906,0,0,0-1.9-1.9H19.1V15.4h7.6V11.6H22.9V9.7H19.1v1.9H17.2a1.906,1.906,0,0,0-1.9,1.9v5.7a1.906,1.906,0,0,0,1.9,1.9h5.7V23H15.3v3.8h3.8ZM36.2,4H5.8A3.771,3.771,0,0,0,2.019,7.8L2,30.6a3.787,3.787,0,0,0,3.8,3.8H36.2A3.787,3.787,0,0,0,40,30.6V7.8A3.787,3.787,0,0,0,36.2,4Zm0,26.6H5.8V7.8H36.2Z" transform="translate(-2 -4)" fill="#811fcc"/>
</svg>
