<svg height="512" viewBox="0 0 64 64" width="512" xmlns="http://www.w3.org/2000/svg"><g id="Monitoring"><rect fill="#57a4ff" height="38" rx="4" width="54" x="5" y="15"/><path d="m9 19h46v30h-46z" fill="#ffdaaa"/><path d="m26 49h29v-30c0 16.582-12.971 30-29 30z" fill="#ffc477"/><path d="m3 53h58a0 0 0 0 1 0 0v4a4 4 0 0 1 -4 4h-50a4 4 0 0 1 -4-4v-4a0 0 0 0 1 0 0z" fill="#006df0"/><path d="m55 15h-2a4 4 0 0 1 4 4v30a4 4 0 0 1 -4 4h2a4 4 0 0 0 4-4v-30a4 4 0 0 0 -4-4z" fill="#2488ff"/><path d="m59 53v4a4 4 0 0 1 -4 4h2a4 4 0 0 0 4-4v-4z" fill="#005ece"/><path d="m29 57h6a2 2 0 0 0 2-2v-2h-10v2a2 2 0 0 0 2 2z" fill="#ffcd00"/><path d="m40 32.86a16 16 0 1 1 5.86-21.86 16.016 16.016 0 0 1 -5.86 21.86z" fill="#ff9811"/><path d="m38 29.39a12 12 0 1 1 4.39-16.39 12.01 12.01 0 0 1 -4.39 16.39z" fill="#ffcd00"/><path d="m45.232 37.919-3.464 2-1.732 1 6.914 11.975a4 4 0 0 0 5.464 1.464 4 4 0 0 0 1.464-5.464l-6.914-11.975z" fill="#004fac"/><path d="m36 14h3v10h-3z" fill="#5eac24"/><path d="m30 17h3v7h-3z" fill="#006df0"/><path d="m24 20h3v4h-3z" fill="#ed1c24"/><path d="m41.569 31.812a14.847 14.847 0 0 1 -3.258 1.881l-.1.059 3.56 6.167 3.464-2-3.56-6.167z" fill="#ff5023"/><path d="m20.741 25.5a13 13 0 1 0 4.759-17.758 13.008 13.008 0 0 0 -4.759 17.758zm5.759-16.026a11 11 0 1 1 -4.026 15.026 10.93 10.93 0 0 1 4.026-15.026z"/><path d="m61 52h-2.026a4.948 4.948 0 0 0 1.026-3v-30a5.006 5.006 0 0 0 -5-5h-6.765a16.968 16.968 0 0 0 -32.455 0h-6.78a5.006 5.006 0 0 0 -5 5v30a4.948 4.948 0 0 0 1.026 3h-2.026a1 1 0 0 0 -1 1v4a5.006 5.006 0 0 0 5 5h50a5.006 5.006 0 0 0 5-5v-4a1 1 0 0 0 -1-1zm-6-36a3 3 0 0 1 3 3v30a2.994 2.994 0 0 1 -2.722 2.972 4.983 4.983 0 0 0 .022-2.032.989.989 0 0 0 .7-.94v-30a1 1 0 0 0 -1-1h-6.049a16.959 16.959 0 0 0 -.237-2zm-39.951 4a16.932 16.932 0 0 0 12.551 15.421 17.109 17.109 0 0 0 4.427.586 16.8 16.8 0 0 0 5.74-1.018l2.633 4.564-.865.5a1 1 0 0 0 -.366 1.366l3.801 6.581h-32.97v-28zm26.292 13.179 2.525 4.373-1.732 1-2.516-4.358c.3-.149.592-.3.882-.471s.562-.361.841-.544zm.061 8.106 2.6-1.5 1.732-1 .864-.5 6.41 11.1v.005a3 3 0 0 1 -5.2 3zm6.428-4.867a1 1 0 0 0 -1.366-.366l-.866.5-2.641-4.573a17.025 17.025 0 0 0 6-11.979h5.043v27.106zm-23.33-30.408a14.909 14.909 0 0 1 7.476-2.017 15.094 15.094 0 0 1 3.906.518 15 15 0 0 1 3.618 27.479 15 15 0 1 1 -15-25.98zm-18.5 12.99a3 3 0 0 1 3-3h6.283a17.191 17.191 0 0 0 -.241 2h-6.042a1 1 0 0 0 -1 1v30a1 1 0 0 0 1 1h35.124l1.155 2h-36.279a3 3 0 0 1 -3-3zm30 35v1a1 1 0 0 1 -1 1h-6a1 1 0 0 1 -1-1v-1zm24 3a3 3 0 0 1 -3 3h-50a3 3 0 0 1 -3-3v-3h22v1a3 3 0 0 0 3 3h6a3 3 0 0 0 3-3v-1h8.5a4.971 4.971 0 0 0 7.821 0h5.679z"/><path d="m36 25h3a1 1 0 0 0 1-1v-10a1 1 0 0 0 -1-1h-3a1 1 0 0 0 -1 1v10a1 1 0 0 0 1 1zm1-10h1v8h-1z"/><path d="m30 25h3a1 1 0 0 0 1-1v-7a1 1 0 0 0 -1-1h-3a1 1 0 0 0 -1 1v7a1 1 0 0 0 1 1zm1-7h1v5h-1z"/><path d="m24 25h3a1 1 0 0 0 1-1v-4a1 1 0 0 0 -1-1h-3a1 1 0 0 0 -1 1v4a1 1 0 0 0 1 1zm1-4h1v2h-1z"/><path d="m15 42h2a1 1 0 0 0 0-2h-2a1 1 0 0 0 0 2z"/><path d="m21 42h15a1 1 0 0 0 0-2h-15a1 1 0 0 0 0 2z"/><path d="m15 38h2a1 1 0 0 0 0-2h-2a1 1 0 0 0 0 2z"/><path d="m21 38h4a1 1 0 0 0 0-2h-4a1 1 0 0 0 0 2z"/><path d="m15 46h2a1 1 0 0 0 0-2h-2a1 1 0 0 0 0 2z"/><path d="m21 46h15a1 1 0 0 0 0-2h-15a1 1 0 0 0 0 2z"/></g></svg>